<svg width="19" height="21" viewBox="0 0 19 21" fill="none" xmlns="http://www.w3.org/2000/svg">
<path fill-rule="evenodd" clip-rule="evenodd" d="M10.0001 4.50001C11.621 4.50063 13.1982 5.0264 14.4953 5.99857C15.7923 6.97073 16.7396 8.33696 17.195 9.89262C17.6505 11.4483 17.5897 13.1096 17.0217 14.6279C16.4538 16.1461 15.4092 17.4394 14.0446 18.3142C12.6799 19.1889 11.0686 19.598 9.45188 19.4802C7.8352 19.3623 6.30022 18.7238 5.07684 17.6604C3.85346 16.597 3.00754 15.1658 2.66578 13.5813C2.32401 11.9968 2.5048 10.3442 3.18107 8.87101C3.25468 8.6919 3.25616 8.49126 3.1852 8.31109C3.11424 8.13092 2.97635 7.98517 2.80038 7.90436C2.6244 7.82354 2.42399 7.81392 2.24109 7.87751C2.05818 7.94109 1.90696 8.07296 1.81907 8.24551C1.00759 10.0134 0.790725 11.9966 1.20097 13.8981C1.61121 15.7996 2.62648 17.5169 4.09469 18.793C5.56289 20.069 7.40501 20.835 9.34511 20.9763C11.2852 21.1175 13.2188 20.6263 14.8564 19.5764C16.4939 18.5264 17.7472 16.9742 18.4285 15.1522C19.1098 13.3302 19.1824 11.3364 18.6355 9.46968C18.0886 7.60291 16.9516 5.96358 15.3948 4.79724C13.8381 3.6309 11.9453 3.00034 10.0001 3.00001V4.50001Z" fill="#18A8B1"/>
<path d="M10.0001 6.69901V0.801007C10 0.729752 9.97972 0.659979 9.94147 0.599859C9.90322 0.539739 9.84864 0.49176 9.78411 0.461541C9.71958 0.431322 9.64777 0.420114 9.5771 0.429228C9.50643 0.438343 9.43982 0.467404 9.38507 0.513007L5.84507 3.46201C5.80287 3.4972 5.76892 3.54124 5.74562 3.59101C5.72232 3.64078 5.71024 3.69506 5.71024 3.75001C5.71024 3.80496 5.72232 3.85924 5.74562 3.90901C5.76892 3.95877 5.80287 4.00281 5.84507 4.03801L9.38507 6.98701C9.43982 7.03261 9.50643 7.06167 9.5771 7.07079C9.64777 7.0799 9.71958 7.06869 9.78411 7.03847C9.84864 7.00826 9.90322 6.96028 9.94147 6.90016C9.97972 6.84004 10 6.77026 10.0001 6.69901Z" fill="#18A8B1"/>
</svg>
