<svg width="100" height="100" viewBox="0 0 100 100" fill="none" xmlns="http://www.w3.org/2000/svg">
<path d="M34.375 43.75C33.5462 43.75 32.7513 44.0792 32.1653 44.6653C31.5792 45.2513 31.25 46.0462 31.25 46.875C31.25 47.7038 31.5792 48.4987 32.1653 49.0847C32.7513 49.6708 33.5462 50 34.375 50H65.625C66.4538 50 67.2487 49.6708 67.8347 49.0847C68.4208 48.4987 68.75 47.7038 68.75 46.875C68.75 46.0462 68.4208 45.2513 67.8347 44.6653C67.2487 44.0792 66.4538 43.75 65.625 43.75H34.375ZM31.25 59.375C31.25 58.5462 31.5792 57.7513 32.1653 57.1653C32.7513 56.5792 33.5462 56.25 34.375 56.25H65.625C66.4538 56.25 67.2487 56.5792 67.8347 57.1653C68.4208 57.7513 68.75 58.5462 68.75 59.375C68.75 60.2038 68.4208 60.9987 67.8347 61.5847C67.2487 62.1708 66.4538 62.5 65.625 62.5H34.375C33.5462 62.5 32.7513 62.1708 32.1653 61.5847C31.5792 60.9987 31.25 60.2038 31.25 59.375ZM31.25 71.875C31.25 71.0462 31.5792 70.2513 32.1653 69.6653C32.7513 69.0792 33.5462 68.75 34.375 68.75H46.875C47.7038 68.75 48.4987 69.0792 49.0847 69.6653C49.6708 70.2513 50 71.0462 50 71.875C50 72.7038 49.6708 73.4987 49.0847 74.0847C48.4987 74.6708 47.7038 75 46.875 75H34.375C33.5462 75 32.7513 74.6708 32.1653 74.0847C31.5792 73.4987 31.25 72.7038 31.25 71.875Z" fill="#CACACA"/>
<path d="M59.375 0H25C21.6848 0 18.5054 1.31696 16.1612 3.66117C13.817 6.00537 12.5 9.18479 12.5 12.5V87.5C12.5 90.8152 13.817 93.9946 16.1612 96.3388C18.5054 98.683 21.6848 100 25 100H75C78.3152 100 81.4946 98.683 83.8388 96.3388C86.183 93.9946 87.5 90.8152 87.5 87.5V28.125L59.375 0ZM59.375 6.25V18.75C59.375 21.2364 60.3627 23.621 62.1209 25.3791C63.879 27.1373 66.2636 28.125 68.75 28.125H81.25V87.5C81.25 89.1576 80.5915 90.7473 79.4194 91.9194C78.2473 93.0915 76.6576 93.75 75 93.75H25C23.3424 93.75 21.7527 93.0915 20.5806 91.9194C19.4085 90.7473 18.75 89.1576 18.75 87.5V12.5C18.75 10.8424 19.4085 9.25268 20.5806 8.08058C21.7527 6.90848 23.3424 6.25 25 6.25H59.375Z" fill="#CACACA"/>
<g opacity="0.8" clip-path="url(#clip0_57_1162)">
<path d="M92.9631 47.2359L93.3822 46.8169C93.6976 46.5016 94.072 46.2516 94.484 46.0811C94.8961 45.9106 95.3377 45.8228 95.7836 45.823C96.2296 45.8231 96.6711 45.9111 97.083 46.0818C97.495 46.2526 97.8693 46.5029 98.1845 46.8183C98.4997 47.1337 98.7498 47.5081 98.9203 47.9202C99.0908 48.3322 99.1785 48.7738 99.1784 49.2197C99.1783 49.6657 99.0903 50.1072 98.9195 50.5192C98.7488 50.9311 98.4985 51.3054 98.1831 51.6206L97.764 52.0369C98.4809 52.8409 98.8631 53.8886 98.8322 54.9653C98.8014 56.0421 98.3598 57.0662 97.5981 57.8278L68.6518 86.7769C68.4709 86.9569 68.2444 87.0842 67.9965 87.1453L56.7465 89.9578C56.5111 90.0164 56.2645 90.0132 56.0307 89.9483C55.7969 89.8834 55.5839 89.7592 55.4124 89.5876C55.2408 89.416 55.1166 89.203 55.0517 88.9692C54.9868 88.7355 54.9835 88.4889 55.0422 88.2534L57.8547 77.0034C57.9162 76.7566 58.0435 76.5311 58.2231 76.3509L85.3412 49.2328C85.07 49.0419 84.7401 48.953 84.4096 48.9819C84.0792 49.0107 83.7697 49.1554 83.5356 49.3903L74.2768 58.6519C74.1461 58.7826 73.9909 58.8863 73.82 58.9571C73.6492 59.0279 73.4661 59.0643 73.2812 59.0643C73.0963 59.0643 72.9132 59.0279 72.7424 58.9571C72.5716 58.8863 72.4163 58.7826 72.2856 58.6519C72.1548 58.5211 72.0511 58.3659 71.9804 58.1951C71.9096 58.0242 71.8732 57.8412 71.8732 57.6562C71.8732 57.4713 71.9096 57.2883 71.9804 57.1174C72.0511 56.9466 72.1548 56.7914 72.2856 56.6606L81.55 47.4019C82.3121 46.6397 83.337 46.1982 84.4144 46.1678C85.4918 46.1375 86.5399 46.5207 87.3437 47.2387C88.1165 46.5481 89.1165 46.1661 90.1529 46.1656C91.1893 46.1651 92.1896 46.5461 92.9631 47.2359V47.2359Z" fill="#18A8B1"/>
</g>
<defs>
<clipPath id="clip0_57_1162">
<rect width="45" height="45" fill="white" transform="translate(55 45)"/>
</clipPath>
</defs>
</svg>
